<svg xmlns="http://www.w3.org/2000/svg" viewBox="0 0 300.89 323.98"><defs><style>.cls-1{fill:#c9b64c;}.cls-2{fill:#687ba0;}.cls-3{fill:#231f20;}</style></defs><title>Asset 7</title><g id="Layer_2" data-name="Layer 2"><g id="Layer_1-2" data-name="Layer 1"><path class="cls-1" d="M247.14,197.92l39.18,57.62-83,39.84L179,307.75l3.31-37.87-7.5-19.5-22.42-6.26c-1.21-.34-4,10.81-4.1,11.7-.8,6.83-2.32,14.78-2.07,21.23.51,12.86,2.64,19.48,5,25,3.22,7.51,9.62,13.82,10.74,21.93A162,162,0,1,1,300.89,78.6l-53.82,28.89-20.58,20.58,27.85,35.32-7.2,9.17Z"/><polygon class="cls-2" points="245.06 258.15 272.34 259.38 254.34 272.88 236.67 274.53 245.06 258.15"/><g id="Layer_1-3" data-name="Layer 1"><path class="cls-3" d="M247.14,197.92V172.56l11.93-11.93-26.8-26.8,26.34-26.34-28.2-28.2A17.91,17.91,0,0,0,233.62,69a18.1,18.1,0,1,0-9.25,15.76l22.7,22.7-20.58,20.58L150,51.62a17.58,17.58,0,1,0-5.64,5.87L247.53,160.63,239,169.21v31.51l38.6,50.58A26.79,26.79,0,0,1,244,247l-6.9-7.18-.47,34.7-4.47,2.24c-5,2.45-9.77,4.78-14.33,6.92L193.6,251.9l-6.48,4.94,23.14,30.35c-10.35,4.68-19.11,8.32-25.47,10.49a50.64,50.64,0,0,0-23.91-58.41l19.86-19.86L149.62,188.3,167.87,170l28.9,28.9a15,15,0,0,0-.23,2.73,16.19,16.19,0,0,0,29.32,9.49l6.06,12.33,7.32-3.59L228.51,198a16.17,16.17,0,0,0-28-6.92l-19.74-19.74,20-20-23-23a18,18,0,1,0-13.52,6.11,17.77,17.77,0,0,0,6.78-1.33l18.23,18.23-14.08,14.08L173,163.61l-5.38-5.38-.23.23-79-79a18,18,0,1,0-6.34,5.2l79.69,79.69L138,188.16l.12.12-24.59,24.54-14.75-15,32.42-33L95.76,128.7a17.88,17.88,0,0,0,2-8.18A18.1,18.1,0,1,0,90.47,135l29.3,29.81L92.35,192.7l-2.77-2.77a17.88,17.88,0,0,0,2.56-9.28,18.06,18.06,0,1,0-8.23,15.15l5.71,5.71.09-.09L107.34,219,89.09,237.29a18.05,18.05,0,1,0,8,15A17.79,17.79,0,0,0,95,243.79l8.37-8.51,22.77,22.77-14.5,14.5a18.06,18.06,0,1,0,11.28,16.73,18,18,0,0,0-4.54-12l19.28-19.28L109,229.46l10.4-10.58-.21-.21L143.86,194l25.36,25.36-22.37,22.37,5.57,2.35c3.82,1.61,16.76,8,23,23,6.78,16.27,1,30.84-.86,34.91l-3.4,7.25,7.88-1.51c13.38-2.56,46.85-18.79,56.8-23.7,20.49-10.14,44-22.86,50.48-28.5l2.87-2.52ZM205.65,69a9.91,9.91,0,1,1,9.91,9.91A9.93,9.93,0,0,1,205.65,69Zm-70.74-16.9a9.44,9.44,0,1,1,9.44-9.44A9.46,9.46,0,0,1,134.91,52.11Zm77.85,141.47a8,8,0,1,1-8,8A8.06,8.06,0,0,1,212.76,193.59Zm-58.38-77.26a9.91,9.91,0,1,1,9.91,9.91A9.93,9.93,0,0,1,154.37,116.32ZM64.25,68.43a9.91,9.91,0,1,1,9.91,9.91A9.93,9.93,0,0,1,64.25,68.43Zm15.43,62a9.91,9.91,0,1,1,9.91-9.91A9.93,9.93,0,0,1,79.67,130.43Zm25.17,168.74a9.91,9.91,0,1,1,9.91-9.91A9.93,9.93,0,0,1,104.85,299.17ZM74.08,190.56A9.91,9.91,0,1,1,84,180.65,9.93,9.93,0,0,1,74.08,190.56Zm5,71.62A9.91,9.91,0,1,1,89,252.28,9.93,9.93,0,0,1,79,262.18Zm166-4a34.92,34.92,0,0,0,13.47,4.92c-4.2,2.28-8.79,4.73-13.61,7.23Z"/></g><circle class="cls-2" cx="135.16" cy="43.21" r="10.25"/><circle class="cls-2" cx="74.16" cy="68.21" r="10.25"/><circle class="cls-2" cx="212.83" cy="201.55" r="10.25"/><circle class="cls-2" cx="215.5" cy="69.55" r="10.25"/><circle class="cls-2" cx="80.16" cy="120.21" r="10.25"/><circle class="cls-2" cx="74.16" cy="180.88" r="10.25"/><circle class="cls-2" cx="79.5" cy="252.21" r="10.25"/><circle class="cls-2" cx="104.83" cy="289.55" r="10.25"/><circle class="cls-2" cx="164.33" cy="116.56" r="10.25"/></g></g></svg>